<?xml version="1.0" encoding="utf-8"?>
<!-- Generator: Adobe Illustrator 19.2.1, SVG Export Plug-In . SVG Version: 6.00 Build 0)  -->
<svg version="1.1" id="Layer_1" xmlns="http://www.w3.org/2000/svg" xmlns:xlink="http://www.w3.org/1999/xlink" x="0px" y="0px"
	 viewBox="0 0 360 360" style="enable-background:new 0 0 360 360;" xml:space="preserve">
<style type="text/css">
	.st0{fill:#8A8A8A;}
</style>
<g>
	<path class="st0" d="M180,5.1c46.7,0,90.7,18.2,123.7,51.3s51.3,77,51.3,123.7s-18.2,90.7-51.3,123.7s-77,51.3-123.7,51.3
		s-90.7-18.2-123.7-51.3C23.2,270.8,5,226.9,5,180.1S23.2,89.4,56.3,56.4C89.3,23.3,133.3,5.1,180,5.1 M180,0.1
		C80.6,0.1,0,80.7,0,180.1s80.6,180,180,180s180-80.6,180-180S279.4,0.1,180,0.1L180,0.1z"/>
</g>
<g>
	<path id="Dribbble_1_" class="st0" d="M256.6,147.2c-2.1-5-4.7-9.7-7.7-14.2c-3-4.4-6.4-8.6-10.2-12.4c-3.8-3.8-7.9-7.2-12.4-10.2
		c-4.5-3-9.2-5.6-14.2-7.7c-5.1-2.1-10.3-3.8-15.7-4.9c-5.5-1.1-11.2-1.7-16.8-1.7c-5.7,0-11.3,0.6-16.8,1.7
		c-5.4,1.1-10.7,2.7-15.7,4.9c-5,2.1-9.7,4.7-14.2,7.7c-4.4,3-8.6,6.4-12.4,10.2c-3.8,3.8-7.2,7.9-10.2,12.4
		c-3,4.5-5.6,9.2-7.7,14.2c-2.1,5.1-3.8,10.3-4.9,15.7c-1.1,5.5-1.7,11.2-1.7,16.8c0,5.7,0.6,11.3,1.7,16.8
		c1.1,5.4,2.7,10.7,4.9,15.7c2.1,5,4.7,9.7,7.7,14.2c3,4.4,6.4,8.6,10.2,12.4c3.8,3.8,7.9,7.2,12.4,10.2c4.5,3,9.2,5.6,14.2,7.7
		c5.1,2.1,10.3,3.8,15.7,4.9c5.5,1.1,11.2,1.7,16.8,1.7c5.7,0,11.3-0.6,16.8-1.7c5.4-1.1,10.7-2.7,15.7-4.9c5-2.1,9.7-4.7,14.2-7.7
		c4.4-3,8.6-6.4,12.4-10.2c3.8-3.8,7.2-7.9,10.2-12.4c3-4.5,5.6-9.3,7.7-14.2c2.1-5,3.8-10.3,4.9-15.7c1.1-5.5,1.7-11.2,1.7-16.8
		c0-5.7-0.6-11.3-1.7-16.8C260.3,157.6,258.7,152.3,256.6,147.2z M179.6,108.4c18.1,0,34.6,6.7,47.1,17.8
		c-0.2,0.3-10.3,15.7-37.3,25.8c-12.2-22.4-25.6-40.2-26.7-41.6C168.1,109.1,173.8,108.4,179.6,108.4z M162.4,110.5
		C162.4,110.5,162.4,110.5,162.4,110.5c0,0-0.1,0-0.2,0.1C162.3,110.5,162.4,110.5,162.4,110.5z M149.1,115.2
		c1,1.3,14.2,19.2,26.5,41.1c-34.3,9.1-64,8.7-65.9,8.7C114.3,142.9,129.2,124.6,149.1,115.2z M126.5,227.5
		c-11.4-12.6-18.3-29.4-18.3-47.7c0-0.8,0-1.5,0.1-2.3c1.3,0,36.5,0.8,73.3-10.2c2,4,4,8.1,5.8,12.1c-0.9,0.3-1.9,0.5-2.8,0.9
		C146,192.8,126.4,227.4,126.5,227.5C126.4,227.4,126.5,227.5,126.5,227.5z M179.6,251.1c-16.9,0-32.3-5.9-44.6-15.6
		c-0.3-0.2-0.6-0.4-0.9-0.7c0.4,0.3,0.7,0.5,0.9,0.7c0.4,0.3,0.7,0.5,0.7,0.5s13.7-29.8,56-44.6c0.2-0.1,0.3-0.1,0.5-0.1
		c10,26.1,14.2,48,15.2,54.2C198.9,249.1,189.4,251.1,179.6,251.1z M219.4,239c-0.7-4.3-4.5-25.3-13.9-51c23-3.7,43,2.6,44.5,3.1
		C246.9,211,235.5,228.1,219.4,239z M201.2,176.7c-0.5-1.2-1-2.4-1.5-3.7c-1.5-3.5-3.1-7-4.7-10.4c28.2-11.5,39.6-28,39.8-28.2
		c10,12.2,16.1,27.7,16.2,44.6C249.9,178.8,225.7,173.6,201.2,176.7z"/>
</g>
</svg>
