<?xml version="1.0" encoding="utf-8"?>
<!-- Generator: Adobe Illustrator 19.2.1, SVG Export Plug-In . SVG Version: 6.00 Build 0)  -->
<svg version="1.1" id="Layer_1" xmlns="http://www.w3.org/2000/svg" xmlns:xlink="http://www.w3.org/1999/xlink" x="0px" y="0px"
	 viewBox="0 0 360 360" style="enable-background:new 0 0 360 360;" xml:space="preserve">
<style type="text/css">
	.st0{fill:#8A8A8A;}
</style>
<g>
	<path class="st0" d="M180,5c46.7,0,90.7,18.2,123.7,51.3S355,133.3,355,180s-18.2,90.7-51.3,123.7S226.7,355,180,355
		s-90.7-18.2-123.7-51.3C23.2,270.7,5,226.7,5,180S23.2,89.3,56.3,56.3C89.3,23.2,133.3,5,180,5 M180,0C80.6,0,0,80.6,0,180
		s80.6,180,180,180s180-80.6,180-180S279.4,0,180,0L180,0z"/>
</g>
<circle class="st0" cx="115" cy="180" r="51"/>
<circle class="st0" cx="248.8" cy="180" r="51"/>
</svg>
