<?xml version="1.0" encoding="utf-8"?>
<!-- Generator: Adobe Illustrator 19.2.1, SVG Export Plug-In . SVG Version: 6.00 Build 0)  -->
<svg version="1.1" id="Layer_1" xmlns="http://www.w3.org/2000/svg" xmlns:xlink="http://www.w3.org/1999/xlink" x="0px" y="0px"
	 viewBox="0 0 360 360" style="enable-background:new 0 0 360 360;" xml:space="preserve">
<style type="text/css">
	.st0{fill:#8A8A8A;}
</style>
<g>
	<path class="st0" d="M180,5.1c46.7,0,90.7,18.2,123.7,51.3s51.3,77,51.3,123.7s-18.2,90.7-51.3,123.7s-77,51.3-123.7,51.3
		s-90.7-18.2-123.7-51.3C23.2,270.8,5,226.9,5,180.1S23.2,89.4,56.3,56.4C89.3,23.3,133.3,5.1,180,5.1 M180,0.1
		C80.6,0.1,0,80.7,0,180.1s80.6,180,180,180s180-80.6,180-180S279.4,0.1,180,0.1L180,0.1z"/>
</g>
<g id="Instagram_7_">
	<path id="Instagram_1_" class="st0" d="M243.1,97.3H116.9c-10.9,0-19.7,8.8-19.7,19.6v126.4c0,10.9,8.8,19.6,19.7,19.6h126.3
		c10.9,0,19.7-8.8,19.7-19.6V116.9C262.8,106.1,254,97.3,243.1,97.3z M216.2,123.2c0-2.9,2.3-5.2,5.2-5.2h15.5
		c2.9,0,5.2,2.3,5.2,5.2v15.5c0,2.9-2.3,5.2-5.2,5.2h-15.5c-2.9,0-5.2-2.3-5.2-5.2V123.2z M180.2,148.5c17.6,0,31.9,14.2,31.9,31.8
		c0,17.6-14.3,31.8-31.9,31.8c-17.6,0-31.9-14.2-31.9-31.8C148.3,162.7,162.6,148.5,180.2,148.5z M247.3,242.2
		c0,2.9-2.3,5.2-5.2,5.2H117.9c-2.9,0-5.2-2.3-5.2-5.2v-77.7h20.7c-2.7,3.9-3.6,11.1-3.6,15.7c0,27.7,22.6,50.3,50.4,50.3
		c27.8,0,50.4-22.6,50.4-50.3c0-4.6-0.7-11.7-4-15.7h20.7V242.2z"/>
</g>
</svg>
