<?xml version="1.0" encoding="utf-8"?>
<!-- Generator: Adobe Illustrator 19.2.1, SVG Export Plug-In . SVG Version: 6.00 Build 0)  -->
<svg version="1.1" id="Layer_1" xmlns="http://www.w3.org/2000/svg" xmlns:xlink="http://www.w3.org/1999/xlink" x="0px" y="0px"
	 viewBox="0 0 360 360" style="enable-background:new 0 0 360 360;" xml:space="preserve">
<style type="text/css">
	.st0{fill:#8A8A8A;}
</style>
<g id="LinKeDin_2_">
	<g id="LinkedIn_1_">
		<rect x="102.9" y="154.3" class="st0" width="32.8" height="104"/>
		<path class="st0" d="M225.4,153.3c-18.8,0-30.6,10.2-32.8,17.3v-16.3h-36.9c0.5,8.7,0,104,0,104h36.9V202c0-3.1-0.1-6.3,0.8-8.5
			c2.5-6.3,8-12.7,17.8-12.7c12.8,0,18.6,9.6,18.6,23.7v53.8h37.2v-57.8C267.1,168.3,248.7,153.3,225.4,153.3z"/>
		<path class="st0" d="M118.7,105.2c-12.1,0-20.1,7.8-20.1,18.1c0,10.1,7.7,18,19.6,18h0.2c12.3,0,20-8,20-18.1
			C138.3,113,130.8,105.2,118.7,105.2z"/>
	</g>
</g>
<g>
	<path class="st0" d="M180,5c46.7,0,90.7,18.2,123.7,51.3S355,133.3,355,180s-18.2,90.7-51.3,123.7S226.7,355,180,355
		s-90.7-18.2-123.7-51.3C23.2,270.7,5,226.7,5,180S23.2,89.3,56.3,56.3C89.3,23.2,133.3,5,180,5 M180,0C80.6,0,0,80.6,0,180
		s80.6,180,180,180s180-80.6,180-180S279.4,0,180,0L180,0z"/>
</g>
</svg>
