<?xml version="1.0" encoding="utf-8"?>
<!-- Generator: Adobe Illustrator 19.2.1, SVG Export Plug-In . SVG Version: 6.00 Build 0)  -->
<svg version="1.1" id="Layer_1" xmlns="http://www.w3.org/2000/svg" xmlns:xlink="http://www.w3.org/1999/xlink" x="0px" y="0px"
	 viewBox="0 0 360 360" style="enable-background:new 0 0 360 360;" xml:space="preserve">
<style type="text/css">
	.st0{fill:#8A8A8A;}
</style>
<g>
	<path class="st0" d="M180,5.1c46.7,0,90.7,18.2,123.7,51.3s51.3,77,51.3,123.7s-18.2,90.7-51.3,123.7s-77,51.3-123.7,51.3
		s-90.7-18.2-123.7-51.3C23.2,270.8,5,226.9,5,180.1S23.2,89.4,56.3,56.4C89.3,23.3,133.3,5.1,180,5.1 M180,0.1
		C80.6,0.1,0,80.7,0,180.1s80.6,180,180,180s180-80.6,180-180S279.4,0.1,180,0.1L180,0.1z"/>
</g>
<path class="st0" d="M142.7,261.7c75.8,0,117.3-62.8,117.3-117.3c0-1.8,0-3.6-0.1-5.3c8-5.8,15-13.1,20.6-21.3
	c-7.4,3.3-15.3,5.5-23.7,6.5c8.5-5.1,15-13.2,18.1-22.8c-8,4.7-16.8,8.2-26.2,10c-7.5-8-18.2-13-30.1-13
	c-22.8,0-41.2,18.5-41.2,41.2c0,3.2,0.4,6.4,1.1,9.4c-34.3-1.7-64.6-18.1-84.9-43.1c-3.5,6.1-5.6,13.2-5.6,20.7
	c0,14.3,7.3,26.9,18.3,34.3c-6.8-0.2-13.1-2.1-18.7-5.2c0,0.2,0,0.3,0,0.5c0,20,14.2,36.6,33.1,40.4c-3.5,0.9-7.1,1.4-10.9,1.4
	c-2.7,0-5.2-0.3-7.7-0.7c5.2,16.4,20.5,28.3,38.5,28.6c-14.1,11.1-31.9,17.6-51.2,17.6c-3.3,0-6.6-0.2-9.8-0.6
	C97.8,254.9,119.5,261.7,142.7,261.7"/>
</svg>
