<svg xmlns="http://www.w3.org/2000/svg" viewBox="121.03 1416.774 14.012 8.452">
  <defs>
    <style>
      .cls-1 {
        fill: #f7ca0d;
      }
    </style>
  </defs>
  <path id="Union_11" data-name="Union 11" class="cls-1" d="M-1290.926,8.681a.636.636,0,0,1,0-.9l2.508-2.507h-10.947A.635.635,0,0,1-1300,4.64a.635.635,0,0,1,.635-.635h10.947l-2.507-2.507a.636.636,0,0,1,0-.9.636.636,0,0,1,.9,0l4.04,4.04-4.04,4.041a.635.635,0,0,1-.449.186A.634.634,0,0,1-1290.926,8.681Z" transform="translate(-1164.958 1425.641) rotate(180)"/>
</svg>
