<svg id="Group_126" data-name="Group 126" xmlns="http://www.w3.org/2000/svg" viewBox="-256 774 30 30">
  <defs>
    <style>
      .cls-1, .cls-4 {
        fill: none;
      }

      .cls-1 {
        stroke: #282828;
      }

      .cls-2 {
        fill: #414042;
      }

      .cls-3 {
        stroke: none;
      }
    </style>
  </defs>
  <g id="Ellipse_5" data-name="Ellipse 5" class="cls-1" transform="translate(-256 774)">
    <circle class="cls-3" cx="15" cy="15" r="15"/>
    <circle class="cls-4" cx="15" cy="15" r="14.5"/>
  </g>
  <g id="Group_125" data-name="Group 125" transform="translate(-249.94 783.5)">
    <path id="Path_18" data-name="Path 18" class="cls-2" d="M8.415,1.227A2.782,2.782,0,0,1,8.941,2.98a2.527,2.527,0,0,1-.526,1.665,3.777,3.777,0,0,1-.877.614,2.185,2.185,0,0,1,1.315.964,3.357,3.357,0,0,1,.438,1.665A3.241,3.241,0,0,1,8.766,9.73a2.486,2.486,0,0,1-.789.877,2.968,2.968,0,0,1-1.315.526,9.659,9.659,0,0,1-1.578.175H0V0H5.435A3.526,3.526,0,0,1,8.415,1.227Zm-6.136.7V4.383H5A2.546,2.546,0,0,0,6.224,4.12a1.131,1.131,0,0,0,.438-.964A.993.993,0,0,0,6.048,2.1a5.305,5.305,0,0,0-1.315-.175Zm0,4.383v2.98H5a3.434,3.434,0,0,0,1.14-.175,1.349,1.349,0,0,0,.7-1.4,1.3,1.3,0,0,0-.7-1.227,3.269,3.269,0,0,0-1.052-.175Z"/>
    <path id="Path_19" data-name="Path 19" class="cls-2" d="M17.536,3.547a3.189,3.189,0,0,1,1.4,1.227,5.25,5.25,0,0,1,.7,1.753,8.559,8.559,0,0,1,.088,1.665H13.591a1.934,1.934,0,0,0,.877,1.753A2.534,2.534,0,0,0,15.7,10.3a1.855,1.855,0,0,0,1.227-.351,1.572,1.572,0,0,0,.438-.614H19.64a3.1,3.1,0,0,1-.789,1.49A4.293,4.293,0,0,1,15.7,12.05,4.587,4.587,0,0,1,12.715,11,4.05,4.05,0,0,1,11.4,7.667a4.4,4.4,0,0,1,1.14-3.331A3.963,3.963,0,0,1,15.52,3.2,3.782,3.782,0,0,1,17.536,3.547ZM14.293,5.388A2.3,2.3,0,0,0,13.679,6.7h3.769a1.583,1.583,0,0,0-.614-1.315A2.153,2.153,0,0,0,15.52,4.95,1.734,1.734,0,0,0,14.293,5.388Z" transform="translate(-1.407 -0.392)"/>
    <rect id="Rectangle_148" data-name="Rectangle 148" class="cls-2" width="4.821" height="1.402" transform="translate(11.746 0.526)"/>
  </g>
</svg>
