<svg id="Group_127" data-name="Group 127" xmlns="http://www.w3.org/2000/svg" viewBox="-224 774 30 30">
  <defs>
    <style>
      .cls-1 {
        fill: #2b5bfd;
      }

      .cls-2 {
        fill: #fff;
      }
    </style>
  </defs>
  <circle id="Ellipse_12" data-name="Ellipse 12" class="cls-1" cx="15" cy="15" r="15" transform="translate(-224 774)"/>
  <path id="Union_15" data-name="Union 15" class="cls-2" d="M11.308,10.607A4.049,4.049,0,0,1,9.993,7.276a4.4,4.4,0,0,1,1.139-3.331,3.962,3.962,0,0,1,2.981-1.139,3.779,3.779,0,0,1,2.016.35,3.19,3.19,0,0,1,1.4,1.228,5.245,5.245,0,0,1,.7,1.753A8.5,8.5,0,0,1,18.32,7.8H12.184a1.933,1.933,0,0,0,.877,1.753,2.529,2.529,0,0,0,1.227.351,1.857,1.857,0,0,0,1.228-.351,1.573,1.573,0,0,0,.438-.614h2.279a3.093,3.093,0,0,1-.788,1.49,4.294,4.294,0,0,1-3.156,1.228A4.587,4.587,0,0,1,11.308,10.607ZM12.885,5a2.3,2.3,0,0,0-.614,1.314h3.769A1.583,1.583,0,0,0,15.428,5a2.15,2.15,0,0,0-1.315-.438A1.731,1.731,0,0,0,12.885,5ZM0,11.308V0H5.434A3.525,3.525,0,0,1,8.415,1.228,2.783,2.783,0,0,1,8.941,2.98a2.525,2.525,0,0,1-.526,1.666,3.773,3.773,0,0,1-.877.614,2.181,2.181,0,0,1,1.315.964,3.36,3.36,0,0,1,.438,1.666A3.239,3.239,0,0,1,8.765,9.73a2.477,2.477,0,0,1-.788.877,2.97,2.97,0,0,1-1.315.526,9.6,9.6,0,0,1-1.578.175ZM2.279,9.292H5a3.447,3.447,0,0,0,1.139-.175,1.349,1.349,0,0,0,.7-1.4,1.3,1.3,0,0,0-.7-1.228,3.284,3.284,0,0,0-1.052-.175H2.279Zm0-4.909H5A2.554,2.554,0,0,0,6.224,4.12a1.133,1.133,0,0,0,.438-.965A.993.993,0,0,0,6.048,2.1a5.319,5.319,0,0,0-1.315-.175H2.279Zm9.467-2.454V.526h4.821v1.4Z" transform="translate(-217.94 783.5)"/>
</svg>
