<svg xmlns="http://www.w3.org/2000/svg" viewBox="258 617 30 30">
  <defs>
    <style>
      .cls-1, .cls-4 {
        fill: none;
      }

      .cls-1 {
        stroke: #282828;
      }

      .cls-2 {
        fill: #414042;
      }

      .cls-3 {
        stroke: none;
      }
    </style>
  </defs>
  <g id="Group_87" data-name="Group 87" transform="translate(0 72)">
    <g id="Ellipse_5" data-name="Ellipse 5" class="cls-1" transform="translate(258 545)">
      <circle class="cls-3" cx="15" cy="15" r="15"/>
      <circle class="cls-4" cx="15" cy="15" r="14.5"/>
    </g>
    <path id="Path_13" data-name="Path 13" class="cls-2" d="M78.362,139.9a9.162,9.162,0,1,0,9.162,9.162A9.135,9.135,0,0,0,78.362,139.9Zm5.775,4.235a7.666,7.666,0,0,1,1.771,4.466,39.613,39.613,0,0,0-5.236.077c-.231-.539-.385-1-.616-1.463A9.326,9.326,0,0,0,84.137,144.135Zm-5.775-2.695a7.645,7.645,0,0,1,4.851,1.771,9.522,9.522,0,0,1-3.773,2.695,19.94,19.94,0,0,0-3-4.158A5.316,5.316,0,0,1,78.362,141.44Zm-3.465.847a20.109,20.109,0,0,1,3.08,4.158,19.5,19.5,0,0,1-5.852.847H70.971A7.21,7.21,0,0,1,74.9,142.287Zm-4.235,6.467h1.309a22.136,22.136,0,0,0,6.621-1c.154.385.385.77.539,1.155l-.693.231a11.609,11.609,0,0,0-5.852,5.082,7.821,7.821,0,0,1-1.925-5.082Zm7.7,8.007a7.7,7.7,0,0,1-4.7-1.617,10.3,10.3,0,0,1,5.159-4.7c.231-.077.539-.154.847-.231a12.19,12.19,0,0,1,.693,2.387,35.669,35.669,0,0,1,.693,3.773A10.354,10.354,0,0,1,78.362,156.762Zm4.081-1.232a35.668,35.668,0,0,0-.693-3.773c-.154-.616-.385-1.232-.539-1.848a31.858,31.858,0,0,1,4.7,0A7.479,7.479,0,0,1,82.443,155.53Z" transform="translate(194.8 411.1)"/>
  </g>
</svg>
