<svg xmlns="http://www.w3.org/2000/svg" viewBox="338 1406 30 30">
  <defs>
    <style>
      .cls-1 {
        fill: #1da1f2;
      }

      .cls-2 {
        fill: #fff;
      }
    </style>
  </defs>
  <g id="Group_122" data-name="Group 122" transform="translate(0 861)">
    <circle id="Ellipse_6" data-name="Ellipse 6" class="cls-1" cx="15" cy="15" r="15" transform="translate(338 545)"/>
    <path id="Path_14" data-name="Path 14" class="cls-2" d="M14.86,1.463a6.659,6.659,0,0,1-1.771.462A3.191,3.191,0,0,0,14.4.231,5.94,5.94,0,0,1,12.473,1a2.865,2.865,0,0,0-2.156-1,3.089,3.089,0,0,0-3.08,3.08,2.132,2.132,0,0,0,.077.693A8.907,8.907,0,0,1,1,.539a3.5,3.5,0,0,0-.385,1.54A2.975,2.975,0,0,0,2,4.62,2.659,2.659,0,0,1,.616,4.235h0a3.126,3.126,0,0,0,2.464,3,2.619,2.619,0,0,1-.77.077,1.142,1.142,0,0,1-.539-.077A2.981,2.981,0,0,0,4.62,9.316,6.2,6.2,0,0,1,.693,10.779,2.132,2.132,0,0,1,0,10.7a8.846,8.846,0,0,0,4.7,1.386,8.62,8.62,0,0,0,8.7-8.7V3A6.948,6.948,0,0,0,14.86,1.463Z" transform="translate(346 554)"/>
  </g>
</svg>
